<svg width="200" height="200" viewBox="0 0 200 200" fill="none" xmlns="http://www.w3.org/2000/svg">
<path d="M143.3 109.5L134.1 72.7L44.5 93.1999L46.3 139.7L143.3 109.5Z" fill="#DA9200"/>
<path d="M0 122.6L46.3 139.7L44.5 93.2L10.2 82.4L0 122.6Z" fill="#FFC415"/>
<path d="M98.4 62.5L134.1 72.7L44.5 93.2L10.2 82.4L98.4 62.5Z" fill="#FFDF33"/>
<path d="M0 122.6L46.5 138.1L143.3 109.5L46.3 139.7L0 122.6Z" fill="#F19204"/>
<path d="M10.2 82.4L42.6999 94.4L46.5 138.1L46.3 94.5999L134.1 72.7L43.6 91.9L10.2 82.4Z" fill="#FFFF85"/>
<path d="M43.4 74.9L97 81.4L117.4 76.7L65.2 69.9L43.4 74.9Z" fill="#FFFF85"/>
<path d="M200 123L190.3 86.9L99.5 115.1L101.4 163L200 123Z" fill="#FCAF00"/>
<path d="M52.1 142.2L101.4 163L99.5 115.1L60.5 104.3L52.1 142.2Z" fill="#FFC415"/>
<path d="M153.3 75.8L190.3 86.9L99.5 115.1L60.5 104.3L153.3 75.8Z" fill="#FFDF33"/>
<path d="M52.1 142.2L101.6 161.4L200 123L101.4 163L52.1 142.2Z" fill="#F19204"/>
<path d="M60.5 104.3L97.7 116.3L101.6 161.4L101.4 116.5L190.3 86.9L98.6 113.8L60.5 104.3Z" fill="#FFFF85"/>
<path d="M101.5 91.7001L152.7 98.8L171.4 92.8L119 86.3L101.5 91.7001Z" fill="#FFFF85"/>
<path d="M168.8 83.9999L159.6 47.2L70 67.6999L71.8 111.5L168.8 83.9999Z" fill="#FCAF00"/>
<path d="M18.3 92.8L71.8 111.5L70 67.7L28.2 56.4L18.3 92.8Z" fill="#FFC415"/>
<path d="M123.9 37L159.6 47.2L69.9999 67.7L28.2 56.4L123.9 37Z" fill="#FFDF33"/>
<path d="M18.3 92.8L72.0001 109.9L168.8 84L71.8 111.5L18.3 92.8Z" fill="#F19204"/>
<path d="M28.2 56.4L68.1999 68.8L72 109.9L71.8 69.0999L159.6 47.2L69.0999 66.3999L28.2 56.4Z" fill="#FFFF85"/>
<path d="M65.2 48.9L122.5 55.9L142.9 51.2L88.6 44.2L65.2 48.9Z" fill="#FFFF85"/>
</svg>
